PathFileType	3	(X/Y/Z)	dance_move_1__view1_aligned.trc
DataRate	CameraRate	NumFrames	NumMarkers	Units	OrigDataRate	OrigDataStartFrame	OrigNumFrames
100.0	100.0	17	19	mm	100.0	149	890
Frame#	Time	pelvis			neck			head			hip_left			hip_right			knee_left			knee_right			ankle_left			ankle_right			heel_left			heel_right			toe_left			toe_right			shoulder_left			shoulder_right			elbow_left			elbow_right			wrist_left			wrist_right			
		X1	Y1	Z1	X2	Y2	Z2	X3	Y3	Z3	X4	Y4	Z4	X5	Y5	Z5	X6	Y6	Z6	X7	Y7	Z7	X8	Y8	Z8	X9	Y9	Z9	X10	Y10	Z10	X11	Y11	Z11	X12	Y12	Z12	X13	Y13	Z13	X14	Y14	Z14	X15	Y15	Z15	X16	Y16	Z16	X17	Y17	Z17	X18	Y18	Z18	X19	Y19	Z19	
149	1.48000	149.552246	824.730013	56.958551	109.709648	1254.435395	-293.936944	98.843626	1281.641986	-465.499195	68.614689	825.570593	63.933518	230.489803	823.889433	49.983583	-96.214442	506.509797	-164.794549	311.041468	494.705339	-201.574083	-65.479015	168.259762	34.982311	279.430302	130.941874	-54.708718	-47.905883	128.967658	75.298082	271.590177	91.846244	-11.511327	-159.235727	101.827200	-115.024306	285.688623	42.844291	-228.711698	-76.633217	1213.632772	-233.072093	302.061564	1203.925057	-261.672419	-154.162436	941.823298	-168.165733	342.213046	911.446001	-257.518185	-89.430922	702.308024	-264.344831	343.068613	660.767716	-349.895618
150	1.49000	148.305047	821.511449	58.225082	108.503748	1250.812938	-292.566807	97.779725	1277.778910	-463.930360	67.456788	822.432140	65.149338	229.153305	820.590758	51.300826	-95.607375	505.228423	-166.306188	309.910360	494.493499	-203.871335	-65.794814	167.891242	34.675738	279.987497	131.487016	-55.997932	-48.524500	128.673626	75.152672	272.379960	92.545079	-12.696447	-158.781866	101.584719	-115.556121	286.649033	43.275994	-229.775292	-77.723000	1209.499719	-232.170179	300.674332	1200.620199	-260.979074	-151.300272	937.177407	-169.833603	338.007318	908.539038	-259.524772	-84.174468	700.119028	-266.281691	334.957596	660.354162	-352.459272
151	1.50000	147.057848	818.292885	59.491614	107.297848	1247.190481	-291.196669	96.715825	1273.915834	-462.361524	66.298888	819.293688	66.365159	227.816808	817.292082	52.618069	-95.000308	503.947050	-167.817827	308.779252	494.281658	-206.168588	-66.110613	167.522723	34.369165	280.544691	132.032158	-57.287145	-49.143116	128.379593	75.007261	273.169743	93.243915	-13.881568	-158.328005	101.342239	-116.087937	287.609444	43.707696	-230.838887	-78.812784	1205.366666	-231.268264	299.287099	1197.315342	-260.285729	-148.438107	932.531516	-171.501473	333.801590	905.632074	-261.531358	-78.918013	697.930032	-268.218551	326.846580	659.940607	-355.022926
152	1.51000	145.810649	815.074321	60.758145	106.091948	1243.568023	-289.826532	95.651925	1270.052758	-460.792689	65.140988	816.155236	67.580979	226.480310	813.993406	53.935311	-94.393241	502.665677	-169.329466	307.648143	494.069818	-208.465840	-66.426412	167.154204	34.062593	281.101885	132.577301	-58.576358	-49.761733	128.085561	74.861851	273.959526	93.942751	-15.066689	-157.874144	101.099758	-116.619752	288.569854	44.139399	-231.902481	-79.902567	1201.233613	-230.366350	297.899866	1194.010484	-259.592384	-145.575943	927.885625	-173.169343	329.595861	902.725110	-263.537945	-73.661559	695.741036	-270.155411	318.735564	659.527052	-357.586580
153	1.52000	144.563450	811.855758	62.024677	104.886047	1239.945566	-288.456395	94.588025	1266.189681	-459.223853	63.983087	813.016784	68.796800	225.143813	810.694731	55.252554	-93.786174	501.384303	-170.841105	306.517035	493.857978	-210.763093	-66.742211	166.785685	33.756020	281.659080	133.122443	-59.865571	-50.380349	127.791528	74.716440	274.749309	94.641587	-16.251809	-157.420283	100.857278	-117.151568	289.530264	44.571102	-232.966076	-80.992351	1197.100560	-229.464436	296.512634	1190.705627	-258.899039	-142.713779	923.239734	-174.837213	325.390133	899.818147	-265.544531	-68.405104	693.552040	-272.092271	310.624548	659.113497	-360.150234
154	1.53000	143.316251	808.637194	63.291208	103.680147	1236.323109	-287.086258	93.524124	1262.326605	-457.655018	62.825187	809.878332	70.012620	223.807315	807.396055	56.569796	-93.179107	500.102930	-172.352744	305.385927	493.646137	-213.060345	-67.058010	166.417166	33.449447	282.216274	133.667585	-61.154784	-50.998966	127.497496	74.571029	275.539092	95.340423	-17.436930	-156.966422	100.614797	-117.683383	290.490674	45.002805	-234.029671	-82.082134	1192.967506	-228.562521	295.125401	1187.400769	-258.205694	-139.851614	918.593844	-176.505083	321.184404	896.911183	-267.551118	-63.148650	691.363044	-274.029132	302.513532	658.699942	-362.713888
155	1.54000	142.069052	805.418630	64.557740	102.474247	1232.700651	-285.716120	92.460224	1258.463529	-456.086182	61.667287	806.739880	71.228441	222.470818	804.097380	57.887039	-92.572040	498.821557	-173.864382	304.254818	493.434297	-215.357597	-67.373809	166.048646	33.142874	282.773468	134.212727	-62.443997	-51.617582	127.203463	74.425619	276.328875	96.039258	-18.622050	-156.512561	100.372316	-118.215199	291.451084	45.434508	-235.093265	-83.171918	1188.834453	-227.660607	293.738169	1184.095912	-257.512349	-136.989450	913.947953	-178.172953	316.978676	894.004220	-269.557704	-57.892196	689.174048	-275.965992	294.402515	658.286388	-365.277542
156	1.55000	140.821853	802.200066	65.824271	101.268347	1229.078194	-284.345983	91.396324	1254.600453	-454.517347	60.509386	803.601428	72.444261	221.134320	800.798704	59.204282	-91.964973	497.540183	-175.376021	303.123710	493.222457	-217.654850	-67.689608	165.680127	32.836301	283.330663	134.757869	-63.733210	-52.236199	126.909431	74.280208	277.118658	96.738094	-19.807171	-156.058700	100.129836	-118.747014	292.411494	45.866211	-236.156860	-84.261701	1184.701400	-226.758693	292.350936	1180.791054	-256.819004	-134.127286	909.302062	-179.840823	312.772947	891.097256	-271.564291	-52.635741	686.985052	-277.902852	286.291499	657.872833	-367.841196
157	1.56000	139.574654	798.981502	67.090803	100.062446	1225.455736	-282.975846	90.332423	1250.737376	-452.948511	59.351486	800.462976	73.660081	219.797823	797.500028	60.521524	-91.357906	496.258810	-176.887660	301.992602	493.010616	-219.952102	-68.005407	165.311608	32.529729	283.887857	135.303011	-65.022423	-52.854815	126.615399	74.134798	277.908441	97.436930	-20.992292	-155.604839	99.887355	-119.278830	293.371904	46.297914	-237.220454	-85.351485	1180.568347	-225.856778	290.963704	1177.486197	-256.125659	-131.265122	904.656171	-181.508693	308.567219	888.190293	-273.570877	-47.379287	684.796056	-279.839712	278.180483	657.459278	-370.404850
158	1.57000	138.327456	795.762939	68.357334	98.856546	1221.833279	-281.605709	89.268523	1246.874300	-451.379676	58.193586	797.324524	74.875902	218.461325	794.201353	61.838767	-90.750839	494.977436	-178.399299	300.861493	492.798776	-222.249355	-68.321206	164.943089	32.223156	284.445051	135.848153	-66.311636	-53.473432	126.321366	73.989387	278.698224	98.135766	-22.177412	-155.150978	99.644875	-119.810645	294.332314	46.729617	-238.284049	-86.441268	1176.435293	-224.954864	289.576471	1174.181340	-255.432314	-128.402957	900.010280	-183.176564	304.361491	885.283329	-275.577464	-42.122832	682.607060	-281.776572	270.069467	657.045723	-372.968504
159	1.58000	136.765783	792.373212	69.420778	97.061266	1219.193898	-279.174607	87.725315	1244.580902	-448.717168	56.920051	793.964744	75.982009	216.611500	790.781680	62.859565	-89.765949	493.527457	-180.054322	297.103046	492.208287	-223.946716	-69.060926	164.669169	32.300753	284.037280	136.283626	-66.629525	-54.694060	126.177014	74.323576	278.829675	98.771209	-22.350676	-154.832111	99.376061	-120.072715	294.002611	46.944287	-238.303589	-88.156582	1172.900950	-223.698834	287.607099	1172.041185	-253.571644	-125.320008	896.550610	-185.061329	299.462255	883.825572	-276.251182	-34.192480	682.080981	-282.268727	259.566671	658.291917	-373.597555
160	1.59000	135.204111	788.983485	70.484222	95.265985	1216.554517	-276.743506	86.182106	1242.287504	-446.054659	55.646516	790.604963	77.088117	214.761676	787.362008	63.880363	-88.781060	492.077478	-181.709345	293.344599	491.617797	-225.644078	-69.800646	164.395249	32.378349	283.629509	136.719099	-66.947413	-55.914688	126.032662	74.657764	278.961126	99.406653	-22.523940	-154.513244	99.107247	-120.334785	293.672907	47.158956	-238.323130	-89.871895	1169.366607	-222.442805	285.637728	1169.901031	-251.710973	-122.237058	893.090940	-186.946094	294.563020	882.367815	-276.924900	-26.262128	681.554902	-282.760883	249.063874	659.538111	-374.226606
161	1.60000	133.642439	785.593759	71.547665	93.470705	1213.915135	-274.312404	84.638898	1239.994106	-443.392151	54.372980	787.245183	78.194225	212.911851	783.942336	64.901161	-87.796171	490.627499	-183.364368	289.586151	491.027308	-227.341440	-70.540366	164.121330	32.455946	283.221738	137.154572	-67.265302	-57.135316	125.888309	74.991953	279.092578	100.042096	-22.697204	-154.194377	98.838434	-120.596854	293.343204	47.373625	-238.342670	-91.587208	1165.832263	-221.186775	283.668356	1167.760877	-249.850303	-119.154109	889.631270	-188.830860	289.663784	880.910058	-277.598618	-18.331776	681.028823	-283.253038	238.561078	660.784305	-374.855658
162	1.61000	132.080767	782.204032	72.611109	91.675424	1211.275754	-271.881303	83.095690	1237.700707	-440.729643	53.099445	783.885402	79.300332	211.062026	780.522664	65.921959	-86.811281	489.177520	-185.019391	285.827704	490.436819	-229.038801	-71.280086	163.847410	32.533543	282.813967	137.590045	-67.583190	-58.355944	125.743957	75.326141	279.224029	100.677540	-22.870469	-153.875510	98.569620	-120.858924	293.013501	47.588294	-238.362210	-93.302521	1162.297920	-219.930746	281.698984	1165.620722	-247.989632	-116.071159	886.171601	-190.715625	284.764548	879.452301	-278.272336	-10.401424	680.502744	-283.745193	228.058282	662.030498	-375.484709
163	1.62000	130.519095	778.814306	73.674552	89.880144	1208.636373	-269.450201	81.552481	1235.407309	-438.067134	51.825910	780.525621	80.406440	209.212201	777.102991	66.942757	-85.826392	487.727540	-186.674414	282.069257	489.846330	-230.736163	-72.019807	163.573491	32.611140	282.406196	138.025518	-67.901078	-59.576572	125.599605	75.660330	279.355480	101.312983	-23.043733	-153.556644	98.300807	-121.120993	292.683797	47.802964	-238.381751	-95.017835	1158.763576	-218.674717	279.729613	1163.480568	-246.128962	-112.988210	882.711931	-192.600391	279.865313	877.994544	-278.946054	-2.471072	679.976665	-284.237348	217.555486	663.276692	-376.113760
164	1.63000	128.957423	775.424579	74.737996	88.084864	1205.996992	-267.019100	80.009273	1233.113911	-435.404626	50.552375	777.165841	81.512548	207.362376	773.683319	67.963555	-84.841503	486.277561	-188.329437	278.310809	489.255841	-232.433525	-72.759527	163.299571	32.688736	281.998425	138.460991	-68.218967	-60.797200	125.455252	75.994518	279.486931	101.948426	-23.216997	-153.237777	98.031993	-121.383063	292.354094	48.017633	-238.401291	-96.733148	1155.229233	-217.418687	277.760241	1161.340413	-244.268291	-109.905261	879.252261	-194.485156	274.966077	876.536787	-279.619772	5.459280	679.450586	-284.729503	207.052690	664.522886	-376.742811
165	1.64000	127.395751	772.034853	75.801439	86.289583	1203.357611	-264.587999	78.466065	1230.820513	-432.742118	49.278840	773.806060	82.618655	205.512552	770.263647	68.984353	-83.856613	484.827582	-189.984460	274.552362	488.665351	-234.130887	-73.499247	163.025651	32.766333	281.590653	138.896464	-68.536855	-62.017828	125.310900	76.328707	279.618382	102.583870	-23.390261	-152.918910	97.763179	-121.645133	292.024391	48.232302	-238.420832	-98.448461	1151.694889	-216.162658	275.790869	1159.200259	-242.407621	-106.822311	875.792592	-196.369922	270.066842	875.079030	-280.293490	13.389632	678.924507	-285.221658	196.549893	665.769079	-377.371863
